<?xml version="1.0" encoding="utf-8"?>
<!-- Generator: Adobe Illustrator 21.1.0, SVG Export Plug-In . SVG Version: 6.00 Build 0)  -->
<svg version="1.1" id="Layer_1" xmlns="http://www.w3.org/2000/svg" xmlns:xlink="http://www.w3.org/1999/xlink" x="0px" y="0px"
	 viewBox="0 0 1000 1000" style="enable-background:new 0 0 1000 1000;" xml:space="preserve">
<style type="text/css">
	.st0{fill:#CCCCCC;}
	.st1{fill:none;stroke:#00C8FF;stroke-width:1.5;stroke-linecap:round;stroke-miterlimit:10;}
</style>
<g>
	<g>
		<rect y="-51.7" class="st0" width="1000" height="1000"/>
	</g>
	<line class="st1" x1="578.6" y1="752.9" x2="825.7" y2="291.1"/>
	<line class="st1" x1="578.6" y1="752.9" x2="279.4" y2="425.6"/>
	<line class="st1" x1="578.6" y1="752.9" x2="881.7" y2="711.3"/>
	<line class="st1" x1="578.6" y1="752.9" x2="736.1" y2="230.7"/>
	<line class="st1" x1="578.6" y1="752.9" x2="438.7" y2="536.9"/>
	<line class="st1" x1="825.7" y1="291.1" x2="279.4" y2="425.6"/>
	<line class="st1" x1="825.7" y1="291.1" x2="881.7" y2="711.3"/>
	<line class="st1" x1="825.7" y1="291.1" x2="736.1" y2="230.7"/>
	<line class="st1" x1="825.7" y1="291.1" x2="438.7" y2="536.9"/>
	<line class="st1" x1="279.4" y1="425.6" x2="881.7" y2="711.3"/>
	<line class="st1" x1="279.4" y1="425.6" x2="736.1" y2="230.7"/>
	<line class="st1" x1="279.4" y1="425.6" x2="438.7" y2="536.9"/>
	<line class="st1" x1="881.7" y1="711.3" x2="736.1" y2="230.7"/>
	<line class="st1" x1="881.7" y1="711.3" x2="438.7" y2="536.9"/>
	<line class="st1" x1="736.1" y1="230.7" x2="438.7" y2="536.9"/>
</g>
</svg>
