<?xml version="1.0" encoding="utf-8"?>
<!-- Generator: Adobe Illustrator 21.1.0, SVG Export Plug-In . SVG Version: 6.00 Build 0)  -->
<svg version="1.1" id="Layer_1" xmlns="http://www.w3.org/2000/svg" xmlns:xlink="http://www.w3.org/1999/xlink" x="0px" y="0px"
	 viewBox="0 0 1000 1000" style="enable-background:new 0 0 1000 1000;" xml:space="preserve">
<style type="text/css">
	.st0{display:none;}
	.st1{display:inline;fill:#CCCCCC;}
	.st2{fill:none;stroke:#0ACAFF;stroke-width:1.5;stroke-linecap:round;stroke-miterlimit:10;}
</style>
<g>
	<g class="st0">
		<rect x="41.1" y="163" class="st1" width="1000" height="1000"/>
	</g>
	<line class="st2" x1="619.7" y1="967.6" x2="866.8" y2="505.8"/>
	<line class="st2" x1="619.7" y1="967.6" x2="320.5" y2="640.3"/>
	<line class="st2" x1="619.7" y1="967.6" x2="922.8" y2="926"/>
	<line class="st2" x1="619.7" y1="967.6" x2="777.2" y2="445.4"/>
	<line class="st2" x1="619.7" y1="967.6" x2="479.8" y2="751.6"/>
	<line class="st2" x1="866.8" y1="505.8" x2="320.5" y2="640.3"/>
	<line class="st2" x1="866.8" y1="505.8" x2="922.8" y2="926"/>
	<line class="st2" x1="866.8" y1="505.8" x2="777.2" y2="445.4"/>
	<line class="st2" x1="866.8" y1="505.8" x2="479.8" y2="751.6"/>
	<line class="st2" x1="320.5" y1="640.3" x2="922.8" y2="926"/>
	<line class="st2" x1="320.5" y1="640.3" x2="777.2" y2="445.4"/>
	<line class="st2" x1="320.5" y1="640.3" x2="479.8" y2="751.6"/>
	<line class="st2" x1="922.8" y1="926" x2="777.2" y2="445.4"/>
	<line class="st2" x1="922.8" y1="926" x2="479.8" y2="751.6"/>
	<line class="st2" x1="777.2" y1="445.4" x2="479.8" y2="751.6"/>
</g>
</svg>
